<?xml version="1.0" standalone="no"?>
<!DOCTYPE svg PUBLIC "-//W3C//DTD SVG 20010904//EN"
 "http://www.w3.org/TR/2001/REC-SVG-20010904/DTD/svg10.dtd">
<svg version="1.0" xmlns="http://www.w3.org/2000/svg"
 width="300.000000pt" height="300.000000pt" viewBox="0 0 300.000000 300.000000"
 preserveAspectRatio="xMidYMid meet">

<g transform="translate(0.000000,300.000000) scale(0.100000,-0.100000)"
fill="#000000" stroke="none">
<path d="M250 2770 c0 -151 -1 -150 104 -150 93 0 96 4 96 156 l0 124 -30 0
-29 0 -3 -112 -3 -113 -37 -3 -38 -3 0 115 0 116 -30 0 -30 0 0 -130z"/>
<path d="M500 2760 l0 -140 30 0 30 0 0 88 0 87 53 -87 c48 -81 54 -87 85 -88
l32 0 0 140 0 140 -30 0 -29 0 -3 -81 -3 -81 -49 81 c-45 76 -51 81 -82 81
l-34 0 0 -140z"/>
<path d="M780 2760 l0 -140 30 0 30 0 0 140 0 140 -30 0 -30 0 0 -140z"/>
<path d="M938 2763 l47 -138 35 -3 35 -3 43 128 c24 70 46 134 49 141 4 10 -5
13 -33 10 l-38 -3 -24 -82 c-14 -46 -28 -83 -31 -83 -4 0 -19 38 -35 85 -27
84 -27 85 -61 85 l-34 0 47 -137z"/>
<path d="M1190 2760 l0 -140 95 0 c88 0 95 2 95 20 0 16 -8 19 -62 22 l-63 3
-3 43 -3 42 40 0 c34 0 41 3 41 19 0 16 -8 20 -37 23 -35 3 -38 6 -38 33 0 30
0 30 63 33 54 3 62 6 62 22 0 18 -7 20 -95 20 l-95 0 0 -140z"/>
<path d="M1430 2760 l0 -140 30 0 c30 0 30 0 30 56 0 69 14 68 53 -4 24 -44
33 -52 58 -52 16 0 29 2 29 5 0 3 -11 28 -25 55 -14 28 -21 50 -16 50 25 0 41
34 41 85 0 76 -12 85 -116 85 l-84 0 0 -140z m128 61 c4 -37 -9 -51 -45 -51
-21 0 -23 5 -23 46 0 45 0 45 33 42 28 -3 32 -7 35 -37z"/>
<path d="M1686 2884 c-20 -20 -21 -73 -1 -101 9 -13 35 -27 58 -34 53 -14 67
-25 67 -55 0 -21 -5 -24 -35 -24 -24 0 -35 5 -35 15 0 10 -11 15 -35 15 -30 0
-35 -3 -35 -23 0 -40 29 -57 99 -57 89 0 101 9 101 74 0 61 -15 80 -70 91 -19
4 -41 12 -47 17 -16 13 -17 44 -2 53 16 11 59 -4 59 -20 0 -10 10 -15 30 -15
26 0 30 4 30 28 0 43 -17 52 -96 52 -53 0 -77 -4 -88 -16z"/>
<path d="M1920 2760 l0 -140 30 0 30 0 0 140 0 140 -30 0 -30 0 0 -140z"/>
<path d="M2030 2880 c0 -17 7 -20 40 -20 l40 0 0 -120 0 -120 30 0 30 0 0 120
0 120 40 0 c33 0 40 3 40 20 0 19 -7 20 -110 20 -103 0 -110 -1 -110 -20z"/>
<path d="M2302 2774 c-24 -69 -46 -132 -49 -140 -4 -10 4 -14 31 -14 30 0 37
4 42 25 5 22 12 25 50 25 38 0 46 -4 54 -25 8 -20 16 -25 45 -25 l35 0 -48
138 -48 137 -35 3 -34 3 -43 -127z m92 -6 c10 -39 7 -48 -18 -48 -23 0 -24 2
-13 35 12 40 22 44 31 13z"/>
<path d="M2566 2884 c-22 -22 -21 -87 3 -108 10 -9 36 -22 57 -28 50 -13 64
-25 64 -54 0 -21 -5 -24 -35 -24 -22 0 -38 6 -41 15 -4 9 -19 15 -35 15 -24 0
-29 -4 -29 -24 0 -42 25 -56 96 -56 92 0 104 9 104 74 0 61 -15 81 -72 91 -20
4 -45 16 -54 26 -16 18 -16 21 -2 36 20 19 68 10 68 -12 0 -10 10 -15 30 -15
26 0 30 4 30 28 0 43 -17 52 -96 52 -53 0 -77 -4 -88 -16z"/>
<path d="M851 2425 c-61 -171 -60 -165 -18 -165 29 0 36 4 41 25 6 22 12 25
51 25 39 0 45 -3 51 -25 5 -21 12 -25 40 -25 19 0 34 3 34 8 0 4 -21 67 -46
140 l-47 132 -32 0 c-33 0 -33 0 -74 -115z m93 -37 c6 -25 4 -28 -19 -28 -28
0 -29 4 -14 50 13 35 21 29 33 -22z"/>
<path d="M1100 2400 l0 -140 30 0 30 0 0 140 0 140 -30 0 -30 0 0 -140z"/>
<path d="M1222 2528 c-18 -18 -15 -94 4 -112 8 -9 27 -19 42 -22 54 -13 83
-34 80 -57 -2 -17 -11 -23 -40 -25 -29 -2 -38 0 -38 12 0 11 -9 16 -30 16 -27
0 -30 -3 -30 -30 0 -39 23 -50 104 -50 78 0 96 13 96 74 0 56 -14 72 -80 93
-42 14 -56 23 -58 40 -5 34 45 44 69 15 9 -12 29 -22 43 -22 21 0 26 5 26 24
0 43 -24 56 -104 56 -43 0 -77 -5 -84 -12z"/>
<path d="M1505 2473 c43 -65 45 -71 45 -140 l0 -73 30 0 30 0 0 68 c0 63 3 71
45 134 25 37 45 70 45 73 0 3 -16 5 -35 5 -31 0 -37 -5 -56 -42 l-21 -42 -19
25 c-10 13 -21 32 -25 42 -4 12 -16 17 -45 17 l-39 0 45 -67z"/>
<path d="M1746 2408 c-25 -73 -46 -136 -46 -140 0 -5 15 -8 34 -8 28 0 35 4
40 25 6 22 12 25 51 25 39 0 45 -3 51 -25 5 -21 12 -25 41 -25 42 0 43 -6 -18
165 -41 115 -41 115 -74 115 l-32 0 -47 -132z m104 -35 c0 -7 -12 -13 -26 -13
-20 0 -25 4 -20 16 3 9 9 28 13 42 l6 27 13 -30 c7 -16 13 -36 14 -42z"/>
<path d="M2000 2400 l0 -140 30 0 c30 0 30 1 30 55 l0 55 40 0 40 0 0 -55 0
-55 35 0 35 0 0 140 0 140 -35 0 -35 0 0 -65 0 -65 -40 0 -40 0 0 65 0 65 -30
0 -30 0 0 -140z"/>
<path d="M1476 2260 c-18 -46 -156 -466 -156 -473 0 -13 58 24 91 58 17 17 36
53 45 85 9 30 20 59 24 63 4 4 33 -70 65 -165 80 -239 184 -524 235 -643 140
-331 282 -545 400 -605 87 -45 203 -17 329 79 30 23 69 46 87 53 24 9 38 22
49 50 20 52 20 53 -17 30 -18 -11 -48 -23 -66 -27 -39 -8 -192 4 -192 15 0 12
72 57 103 64 22 5 33 1 51 -19 l23 -25 6 30 c9 44 -2 88 -24 95 -54 17 -209
-135 -209 -203 0 -17 9 -21 53 -28 l52 -7 -40 -19 c-47 -22 -115 -19 -167 8
-58 30 -160 146 -227 259 -125 210 -251 530 -406 1030 -48 154 -91 287 -95
295 -8 13 -9 13 -14 0z"/>
<path d="M1223 1795 c-12 -8 -27 -31 -33 -50 -17 -51 6 -85 56 -85 l35 0 -20
-29 c-11 -15 -25 -41 -31 -57 -9 -23 6 -12 70 51 71 69 108 120 97 131 -1 2
-23 -10 -47 -26 -34 -23 -57 -30 -92 -30 -26 0 -50 5 -54 12 -10 16 42 58 72
58 19 0 25 5 22 18 -4 22 -47 27 -75 7z"/>
<path d="M1282 1572 c-40 -36 -52 -54 -52 -75 0 -37 -26 -96 -56 -128 -24 -25
-24 -27 -10 -67 16 -46 12 -76 -10 -68 -8 3 -21 9 -29 12 -13 5 -12 -1 2 -40
24 -63 17 -67 -58 -28 -4 1 -10 -13 -13 -32 -32 -168 -148 -376 -244 -437 -85
-54 -144 -28 -176 79 -4 12 -4 21 1 20 12 -4 46 23 66 52 29 42 19 44 -29 5
-25 -20 -47 -35 -49 -33 -3 2 -7 54 -11 116 l-7 111 -27 -42 c-15 -23 -70 -90
-123 -150 -107 -119 -117 -134 -117 -172 0 -87 93 -94 177 -13 l32 31 12 -47
c6 -26 24 -60 39 -76 24 -26 35 -30 79 -30 116 0 262 124 347 294 45 91 48
103 52 191 l4 93 26 -14 c39 -20 66 -2 58 41 -5 27 -3 33 14 38 25 6 28 61 5
94 -14 19 -13 22 10 37 38 25 80 88 113 169 56 136 54 141 -26 69z m-722 -708
c-6 -32 -10 -77 -11 -99 0 -22 -3 -34 -6 -27 -4 10 -12 7 -32 -11 -14 -14 -35
-27 -46 -29 -17 -2 -21 3 -23 33 -3 31 4 46 41 91 24 29 52 66 62 81 10 15 19
26 21 24 2 -2 -1 -30 -6 -63z"/>
<path d="M1050 1300 c0 -14 7 -20 21 -20 15 0 19 4 15 16 -3 9 -6 18 -6 20 0
2 -7 4 -15 4 -8 0 -15 -9 -15 -20z"/>
<path d="M1100 1290 c0 -14 7 -20 21 -20 15 0 19 4 15 16 -3 9 -6 18 -6 20 0
2 -7 4 -15 4 -8 0 -15 -9 -15 -20z"/>
<path d="M1285 1300 c-4 -6 8 -10 28 -10 42 0 93 -17 130 -42 24 -17 27 -17
27 -3 0 36 -166 85 -185 55z"/>
<path d="M1543 1285 c-32 -14 -53 -31 -53 -40 0 -14 3 -14 28 3 36 25 87 42
128 42 19 0 34 5 34 10 0 19 -85 10 -137 -15z"/>
<path d="M1055 1260 c-8 -14 3 -30 21 -30 8 0 14 9 14 20 0 21 -24 28 -35 10z"/>
<path d="M1255 1260 c-4 -6 8 -10 28 -10 47 0 119 -23 157 -50 30 -21 32 -21
29 -4 -6 29 -103 74 -160 74 -26 0 -51 -4 -54 -10z"/>
<path d="M1549 1243 c-32 -17 -55 -36 -58 -47 -3 -17 -1 -17 29 4 38 27 110
50 157 50 20 0 32 4 28 10 -13 21 -100 11 -156 -17z"/>
<path d="M1227 1216 c-5 -14 3 -16 57 -16 50 0 75 -6 122 -30 69 -35 64 -34
64 -17 0 8 -23 26 -52 42 -64 35 -181 48 -191 21z"/>
<path d="M1580 1211 c-64 -25 -90 -43 -90 -63 0 -14 9 -12 51 15 43 26 64 32
125 35 57 3 71 7 67 18 -7 20 -97 17 -153 -5z"/>
<path d="M1323 988 c-12 -13 -29 -40 -38 -60 -17 -42 -20 -124 -5 -133 6 -4 8
-10 6 -14 -3 -4 1 -8 9 -8 13 0 13 3 0 17 -20 22 -21 47 -1 30 13 -10 15 -7
13 15 -1 16 5 32 15 38 21 14 30 6 34 -28 3 -35 24 -57 46 -52 10 3 18 1 18
-4 0 -5 10 -9 21 -9 18 0 19 -3 9 -14 -6 -8 -18 -12 -25 -10 -10 4 -12 0 -8
-15 3 -14 1 -21 -8 -21 -11 0 -11 -2 1 -10 8 -5 36 -10 63 -10 44 0 62 -12 35
-23 -7 -3 -4 -6 8 -6 22 -1 23 2 27 59 2 27 -2 35 -17 38 -11 2 -26 10 -34 18
-11 12 -8 13 22 9 20 -2 36 0 36 5 0 5 7 7 15 4 8 -4 15 -1 15 6 0 8 -9 11
-25 8 -14 -3 -25 -1 -25 4 0 5 -4 6 -10 3 -14 -8 -80 5 -80 17 0 5 4 7 9 4 5
-4 17 -3 27 1 16 6 15 7 -4 14 -17 6 -20 16 -20 56 0 36 2 43 9 30 8 -13 14
-15 30 -7 25 14 25 30 -1 23 -15 -4 -20 0 -20 16 0 14 -6 21 -19 21 -10 0 -38
3 -62 6 -38 5 -47 2 -66 -18z m117 -107 c0 -10 -8 -29 -19 -42 -15 -19 -21
-21 -33 -11 -8 6 -18 10 -22 7 -3 -3 -1 1 4 7 9 10 13 10 19 -1 7 -10 11 -8
16 10 7 23 24 49 31 49 2 0 4 -9 4 -19z"/>
<path d="M1676 875 c-9 -26 -7 -32 5 -12 6 10 9 21 6 23 -2 3 -7 -2 -11 -11z"/>
<path d="M1651 824 c0 -11 3 -14 6 -6 3 7 2 16 -1 19 -3 4 -6 -2 -5 -13z"/>
<path d="M1665 801 c-3 -5 -1 -12 5 -16 5 -3 10 1 10 9 0 18 -6 21 -15 7z"/>
<path d="M1330 790 c0 -5 5 -10 11 -10 5 0 7 5 4 10 -3 6 -8 10 -11 10 -2 0
-4 -4 -4 -10z"/>
<path d="M1367 769 c7 -7 15 -10 18 -7 3 3 -2 9 -12 12 -14 6 -15 5 -6 -5z"/>
<path d="M1580 770 c0 -5 5 -10 10 -10 6 0 10 5 10 10 0 6 -4 10 -10 10 -5 0
-10 -4 -10 -10z"/>
<path d="M1652 775 c13 -14 -12 -47 -33 -42 -10 3 -17 1 -16 -3 1 -4 -10 -22
-26 -39 -26 -29 -31 -31 -100 -32 -61 0 -68 -2 -44 -11 41 -15 108 -2 158 31
51 32 87 85 67 97 -7 4 -10 4 -6 -1z"/>
<path d="M1299 744 c11 -23 76 -84 90 -84 4 0 8 7 8 15 0 15 -24 28 -37 20 -5
-3 -11 4 -15 15 -3 11 -10 19 -15 17 -5 -1 -16 7 -25 18 -16 20 -16 20 -6 -1z"/>
<path d="M1428 673 c7 -3 16 -2 19 1 4 3 -2 6 -13 5 -11 0 -14 -3 -6 -6z"/>
<path d="M250 250 l0 -140 35 0 35 0 0 49 0 48 61 7 c34 3 68 11 75 17 9 7 14
33 14 70 0 82 -10 89 -126 89 l-94 0 0 -140z m148 53 c-3 -36 -5 -38 -40 -41
l-38 -3 0 40 0 41 41 0 40 0 -3 -37z"/>
<path d="M530 250 l0 -140 35 0 35 0 0 50 c0 66 20 66 57 0 26 -46 31 -50 66
-50 28 0 36 3 31 13 -4 6 -18 29 -32 50 -13 22 -22 40 -20 40 40 20 43 26 46
88 4 83 -4 89 -125 89 l-93 0 0 -140z m148 53 c-3 -36 -5 -38 -40 -41 l-38 -3
0 40 0 41 41 0 40 0 -3 -37z"/>
<path d="M800 250 l0 -140 35 0 35 0 0 140 0 140 -35 0 -35 0 0 -140z"/>
<path d="M930 250 l0 -140 35 0 34 0 3 83 3 82 55 -80 c51 -73 58 -80 93 -83
l37 -3 0 140 0 141 -35 0 -34 0 -3 -80 -3 -81 -54 81 c-52 77 -56 80 -93 80
l-38 0 0 -140z"/>
<path d="M1272 374 c-21 -14 -22 -23 -22 -129 0 -136 -1 -135 119 -135 100 0
111 9 111 91 l0 59 -55 0 c-47 0 -55 -3 -55 -19 0 -10 9 -21 20 -24 30 -8 27
-55 -4 -63 -14 -3 -34 -3 -46 1 -19 6 -21 13 -18 93 l3 87 38 3 c26 2 39 -1
43 -12 4 -10 19 -16 40 -16 29 0 34 3 34 24 0 39 -35 56 -115 56 -48 0 -78 -5
-93 -16z"/>
<path d="M1549 369 c-17 -17 -20 -29 -16 -56 8 -47 22 -61 71 -73 70 -18 86
-28 86 -54 0 -38 -68 -53 -77 -16 -4 15 -14 20 -39 20 -42 0 -53 -20 -30 -55
15 -23 22 -25 97 -25 106 0 119 7 119 70 0 54 -15 76 -58 86 -76 17 -92 25
-92 50 0 21 4 24 40 24 29 0 40 -4 40 -15 0 -10 11 -15 35 -15 30 0 35 3 35
24 0 40 -35 56 -117 56 -61 0 -76 -3 -94 -21z"/>
<path d="M1820 250 l0 -140 105 0 c98 0 105 1 105 20 0 18 -7 20 -70 20 l-70
0 0 45 0 45 45 0 c38 0 45 3 45 20 0 17 -7 20 -45 20 -43 0 -45 1 -45 30 0 29
0 29 68 32 61 3 67 5 70 26 3 22 2 22 -102 22 l-106 0 0 -140z"/>
<path d="M2084 373 c2 -10 17 -73 32 -140 l28 -123 51 0 52 0 12 55 c7 30 17
53 22 50 5 -4 9 -12 9 -18 0 -7 5 -29 11 -50 10 -36 11 -37 59 -37 38 0 50 4
54 17 12 40 56 236 56 249 0 11 -10 14 -37 12 l-37 -3 -21 -90 -21 -90 -23 93
-24 93 -30 -3 c-30 -3 -32 -6 -52 -88 -12 -46 -24 -80 -27 -75 -3 6 -13 45
-22 88 l-17 77 -40 0 c-34 0 -40 -3 -35 -17z"/>
<path d="M2530 262 c0 -86 4 -132 12 -140 16 -16 180 -16 196 0 8 8 12 54 12
140 l0 128 -35 0 -35 0 0 -115 c0 -125 -4 -134 -55 -121 -25 6 -25 7 -25 121
l0 115 -35 0 -35 0 0 -128z"/>
</g>
</svg>
